<mxfile host="Electron" agent="Mozilla/5.0 (Windows NT 10.0; Win64; x64) AppleWebKit/537.36 (KHTML, like Gecko) draw.io/24.7.17 Chrome/128.0.6613.36 Electron/32.0.1 Safari/537.36" version="24.7.17">
  <diagram name="Page-1" id="2YBvvXClWsGukQMizWep">
    <mxGraphModel dx="2284" dy="844" grid="1" gridSize="10" guides="1" tooltips="1" connect="1" arrows="1" fold="1" page="1" pageScale="1" pageWidth="850" pageHeight="1100" math="0" shadow="0">
      <root>
        <mxCell id="0" />
        <mxCell id="1" parent="0" />
        <mxCell id="aM9ryv3xv72pqoxQDRHE-1" value=":DBHandler" style="shape=umlLifeline;perimeter=lifelinePerimeter;whiteSpace=wrap;html=1;container=0;dropTarget=0;collapsible=0;recursiveResize=0;outlineConnect=0;portConstraint=eastwest;newEdgeStyle={&quot;edgeStyle&quot;:&quot;elbowEdgeStyle&quot;,&quot;elbow&quot;:&quot;vertical&quot;,&quot;curved&quot;:0,&quot;rounded&quot;:0};" parent="1" vertex="1">
          <mxGeometry x="1120" y="121" width="100" height="529" as="geometry" />
        </mxCell>
        <mxCell id="2SM_bckRGzznBgXp0BpI-1" value="Add song to playlist" style="shape=umlFrame;whiteSpace=wrap;html=1;pointerEvents=0;width=260;height=30;" parent="1" vertex="1">
          <mxGeometry x="-100" y="50" width="1800" height="610" as="geometry" />
        </mxCell>
        <mxCell id="2SM_bckRGzznBgXp0BpI-3" value=":PlaylistHandler" style="shape=umlLifeline;perimeter=lifelinePerimeter;whiteSpace=wrap;html=1;container=0;dropTarget=0;collapsible=0;recursiveResize=0;outlineConnect=0;portConstraint=eastwest;newEdgeStyle={&quot;edgeStyle&quot;:&quot;elbowEdgeStyle&quot;,&quot;elbow&quot;:&quot;vertical&quot;,&quot;curved&quot;:0,&quot;rounded&quot;:0};" parent="1" vertex="1">
          <mxGeometry x="610" y="121" width="100" height="529" as="geometry" />
        </mxCell>
        <mxCell id="2SM_bckRGzznBgXp0BpI-4" value="" style="html=1;points=[];perimeter=orthogonalPerimeter;outlineConnect=0;targetShapes=umlLifeline;portConstraint=eastwest;newEdgeStyle={&quot;edgeStyle&quot;:&quot;elbowEdgeStyle&quot;,&quot;elbow&quot;:&quot;vertical&quot;,&quot;curved&quot;:0,&quot;rounded&quot;:0};" parent="2SM_bckRGzznBgXp0BpI-3" vertex="1">
          <mxGeometry x="45" y="130" width="10" height="220" as="geometry" />
        </mxCell>
        <mxCell id="2SM_bckRGzznBgXp0BpI-7" value=":AccountHandler" style="shape=umlLifeline;perimeter=lifelinePerimeter;whiteSpace=wrap;html=1;container=0;dropTarget=0;collapsible=0;recursiveResize=0;outlineConnect=0;portConstraint=eastwest;newEdgeStyle={&quot;edgeStyle&quot;:&quot;elbowEdgeStyle&quot;,&quot;elbow&quot;:&quot;vertical&quot;,&quot;curved&quot;:0,&quot;rounded&quot;:0};" parent="1" vertex="1">
          <mxGeometry x="859" y="121" width="100" height="529" as="geometry" />
        </mxCell>
        <mxCell id="2SM_bckRGzznBgXp0BpI-8" value="" style="html=1;points=[];perimeter=orthogonalPerimeter;outlineConnect=0;targetShapes=umlLifeline;portConstraint=eastwest;newEdgeStyle={&quot;edgeStyle&quot;:&quot;elbowEdgeStyle&quot;,&quot;elbow&quot;:&quot;vertical&quot;,&quot;curved&quot;:0,&quot;rounded&quot;:0};" parent="2SM_bckRGzznBgXp0BpI-7" vertex="1">
          <mxGeometry x="45" y="150" width="10" height="190" as="geometry" />
        </mxCell>
        <mxCell id="2SM_bckRGzznBgXp0BpI-9" value="addSongToPlaylist(Login login, Song song)" style="html=1;verticalAlign=bottom;endArrow=block;edgeStyle=elbowEdgeStyle;elbow=vertical;curved=0;rounded=0;entryX=-0.011;entryY=0.575;entryDx=0;entryDy=0;entryPerimeter=0;" parent="1" edge="1">
          <mxGeometry x="0.0943" y="13" relative="1" as="geometry">
            <mxPoint x="665" y="273" as="sourcePoint" />
            <Array as="points">
              <mxPoint x="764" y="273" />
              <mxPoint x="724" y="263" />
            </Array>
            <mxPoint x="898.9099999999999" y="274" as="targetPoint" />
            <mxPoint as="offset" />
          </mxGeometry>
        </mxCell>
        <mxCell id="2SM_bckRGzznBgXp0BpI-15" value="" style="shape=umlLifeline;perimeter=lifelinePerimeter;whiteSpace=wrap;html=1;container=1;dropTarget=0;collapsible=0;recursiveResize=0;outlineConnect=0;portConstraint=eastwest;newEdgeStyle={&quot;curved&quot;:0,&quot;rounded&quot;:0};participant=umlActor;" parent="1" vertex="1">
          <mxGeometry x="-89" y="95" width="20" height="520" as="geometry" />
        </mxCell>
        <mxCell id="2SM_bckRGzznBgXp0BpI-16" value="" style="html=1;points=[[0,0,0,0,5],[0,1,0,0,-5],[1,0,0,0,5],[1,1,0,0,-5]];perimeter=orthogonalPerimeter;outlineConnect=0;targetShapes=umlLifeline;portConstraint=eastwest;newEdgeStyle={&quot;curved&quot;:0,&quot;rounded&quot;:0};" parent="2SM_bckRGzznBgXp0BpI-15" vertex="1">
          <mxGeometry x="5" y="80" width="10" height="330" as="geometry" />
        </mxCell>
        <mxCell id="2SM_bckRGzznBgXp0BpI-18" value=":Controller" style="shape=umlLifeline;perimeter=lifelinePerimeter;whiteSpace=wrap;html=1;container=0;dropTarget=0;collapsible=0;recursiveResize=0;outlineConnect=0;portConstraint=eastwest;newEdgeStyle={&quot;edgeStyle&quot;:&quot;elbowEdgeStyle&quot;,&quot;elbow&quot;:&quot;vertical&quot;,&quot;curved&quot;:0,&quot;rounded&quot;:0};" parent="1" vertex="1">
          <mxGeometry x="389" y="100" width="100" height="529" as="geometry" />
        </mxCell>
        <mxCell id="2SM_bckRGzznBgXp0BpI-19" value="" style="html=1;points=[];perimeter=orthogonalPerimeter;outlineConnect=0;targetShapes=umlLifeline;portConstraint=eastwest;newEdgeStyle={&quot;edgeStyle&quot;:&quot;elbowEdgeStyle&quot;,&quot;elbow&quot;:&quot;vertical&quot;,&quot;curved&quot;:0,&quot;rounded&quot;:0};" parent="2SM_bckRGzznBgXp0BpI-18" vertex="1">
          <mxGeometry x="45" y="50" width="10" height="320" as="geometry" />
        </mxCell>
        <mxCell id="2SM_bckRGzznBgXp0BpI-21" value="" style="html=1;verticalAlign=bottom;endArrow=block;edgeStyle=elbowEdgeStyle;elbow=vertical;curved=0;rounded=0;" parent="1" edge="1" target="2SM_bckRGzznBgXp0BpI-3">
          <mxGeometry relative="1" as="geometry">
            <mxPoint x="445" y="250" as="sourcePoint" />
            <Array as="points">
              <mxPoint x="445.5" y="251" />
              <mxPoint x="645.5" y="241" />
            </Array>
            <mxPoint x="604.5" y="251" as="targetPoint" />
          </mxGeometry>
        </mxCell>
        <mxCell id="2SM_bckRGzznBgXp0BpI-28" value="" style="endArrow=classic;html=1;rounded=0;" parent="1" edge="1" source="2SM_bckRGzznBgXp0BpI-16">
          <mxGeometry width="50" height="50" relative="1" as="geometry">
            <mxPoint y="223" as="sourcePoint" />
            <mxPoint x="203.4" y="222.9999999999999" as="targetPoint" />
          </mxGeometry>
        </mxCell>
        <mxCell id="2SM_bckRGzznBgXp0BpI-32" value="" style="endArrow=classic;html=1;rounded=0;" parent="1" source="aM9ryv3xv72pqoxQDRHE-2" target="aM9ryv3xv72pqoxQDRHE-1" edge="1">
          <mxGeometry width="50" height="50" relative="1" as="geometry">
            <mxPoint x="845.9966666666668" y="382" as="sourcePoint" />
            <mxPoint x="986.33" y="382" as="targetPoint" />
          </mxGeometry>
        </mxCell>
        <mxCell id="2SM_bckRGzznBgXp0BpI-34" value=":QueryExecutor" style="shape=umlLifeline;perimeter=lifelinePerimeter;whiteSpace=wrap;html=1;container=0;dropTarget=0;collapsible=0;recursiveResize=0;outlineConnect=0;portConstraint=eastwest;newEdgeStyle={&quot;edgeStyle&quot;:&quot;elbowEdgeStyle&quot;,&quot;elbow&quot;:&quot;vertical&quot;,&quot;curved&quot;:0,&quot;rounded&quot;:0};" parent="1" vertex="1">
          <mxGeometry x="1380" y="108.5" width="100" height="529" as="geometry" />
        </mxCell>
        <mxCell id="2SM_bckRGzznBgXp0BpI-12" value="Confirmation mssg" style="html=1;verticalAlign=bottom;endArrow=open;dashed=1;endSize=8;edgeStyle=elbowEdgeStyle;elbow=horizontal;curved=0;rounded=0;" parent="2SM_bckRGzznBgXp0BpI-34" edge="1" source="2SM_bckRGzznBgXp0BpI-35">
          <mxGeometry x="0.5979" y="-12" relative="1" as="geometry">
            <mxPoint x="-205" y="323.08" as="targetPoint" />
            <Array as="points">
              <mxPoint x="40" y="321" />
            </Array>
            <mxPoint x="-95" y="323.08" as="sourcePoint" />
            <mxPoint as="offset" />
          </mxGeometry>
        </mxCell>
        <mxCell id="2SM_bckRGzznBgXp0BpI-35" value="" style="html=1;points=[];perimeter=orthogonalPerimeter;outlineConnect=0;targetShapes=umlLifeline;portConstraint=eastwest;newEdgeStyle={&quot;edgeStyle&quot;:&quot;elbowEdgeStyle&quot;,&quot;elbow&quot;:&quot;vertical&quot;,&quot;curved&quot;:0,&quot;rounded&quot;:0};" parent="2SM_bckRGzznBgXp0BpI-34" vertex="1">
          <mxGeometry x="45" y="269.08" width="10" height="60.92" as="geometry" />
        </mxCell>
        <mxCell id="2SM_bckRGzznBgXp0BpI-36" value="" style="html=1;verticalAlign=bottom;endArrow=block;edgeStyle=elbowEdgeStyle;elbow=vertical;curved=0;rounded=0;" parent="2SM_bckRGzznBgXp0BpI-34" edge="1" source="aM9ryv3xv72pqoxQDRHE-2">
          <mxGeometry relative="1" as="geometry">
            <mxPoint x="-60" y="270.08" as="sourcePoint" />
            <Array as="points">
              <mxPoint x="5" y="269.66" />
              <mxPoint x="-35" y="259.66" />
            </Array>
            <mxPoint x="40" y="270.08" as="targetPoint" />
            <mxPoint as="offset" />
          </mxGeometry>
        </mxCell>
        <mxCell id="2SM_bckRGzznBgXp0BpI-37" value="Confirmation mssg" style="html=1;verticalAlign=bottom;endArrow=open;dashed=1;endSize=8;edgeStyle=elbowEdgeStyle;elbow=horizontal;curved=0;rounded=0;" parent="1" source="aM9ryv3xv72pqoxQDRHE-2" edge="1">
          <mxGeometry x="-0.006" relative="1" as="geometry">
            <mxPoint x="919" y="440" as="targetPoint" />
            <Array as="points">
              <mxPoint x="1037" y="435.58" />
            </Array>
            <mxPoint x="1112" y="435.58" as="sourcePoint" />
            <mxPoint as="offset" />
          </mxGeometry>
        </mxCell>
        <mxCell id="2SM_bckRGzznBgXp0BpI-40" value="Confirmation mssg" style="endArrow=open;endSize=12;dashed=1;html=1;rounded=0;" parent="1" edge="1" source="2SM_bckRGzznBgXp0BpI-4">
          <mxGeometry x="-0.0268" y="-12" width="160" relative="1" as="geometry">
            <mxPoint x="535" y="461" as="sourcePoint" />
            <mxPoint x="449" y="461" as="targetPoint" />
            <mxPoint as="offset" />
          </mxGeometry>
        </mxCell>
        <mxCell id="aM9ryv3xv72pqoxQDRHE-2" value="" style="html=1;points=[];perimeter=orthogonalPerimeter;outlineConnect=0;targetShapes=umlLifeline;portConstraint=eastwest;newEdgeStyle={&quot;edgeStyle&quot;:&quot;elbowEdgeStyle&quot;,&quot;elbow&quot;:&quot;vertical&quot;,&quot;curved&quot;:0,&quot;rounded&quot;:0};" parent="1" vertex="1">
          <mxGeometry x="1165" y="290" width="10" height="151" as="geometry" />
        </mxCell>
        <mxCell id="2SM_bckRGzznBgXp0BpI-48" value=":UI" style="shape=umlLifeline;perimeter=lifelinePerimeter;whiteSpace=wrap;html=1;container=0;dropTarget=0;collapsible=0;recursiveResize=0;outlineConnect=0;portConstraint=eastwest;newEdgeStyle={&quot;edgeStyle&quot;:&quot;elbowEdgeStyle&quot;,&quot;elbow&quot;:&quot;vertical&quot;,&quot;curved&quot;:0,&quot;rounded&quot;:0};" parent="1" vertex="1">
          <mxGeometry x="160" y="121" width="100" height="549" as="geometry" />
        </mxCell>
        <mxCell id="2SM_bckRGzznBgXp0BpI-49" value="" style="html=1;points=[];perimeter=orthogonalPerimeter;outlineConnect=0;targetShapes=umlLifeline;portConstraint=eastwest;newEdgeStyle={&quot;edgeStyle&quot;:&quot;elbowEdgeStyle&quot;,&quot;elbow&quot;:&quot;vertical&quot;,&quot;curved&quot;:0,&quot;rounded&quot;:0};" parent="2SM_bckRGzznBgXp0BpI-48" vertex="1">
          <mxGeometry x="45" y="100" width="10" height="20" as="geometry" />
        </mxCell>
        <mxCell id="2SM_bckRGzznBgXp0BpI-52" value="" style="html=1;verticalAlign=bottom;endArrow=block;edgeStyle=elbowEdgeStyle;elbow=vertical;curved=0;rounded=0;" parent="1" edge="1" target="2SM_bckRGzznBgXp0BpI-18" source="2SM_bckRGzznBgXp0BpI-49">
          <mxGeometry relative="1" as="geometry">
            <mxPoint x="215" y="212" as="sourcePoint" />
            <Array as="points">
              <mxPoint x="390" y="232" />
              <mxPoint x="490" y="202" />
            </Array>
            <mxPoint x="395" y="232" as="targetPoint" />
          </mxGeometry>
        </mxCell>
        <mxCell id="2SM_bckRGzznBgXp0BpI-53" value="&lt;font style=&quot;font-size: 10px;&quot;&gt;addSongToPlaylist(Login login, Song song)&lt;/font&gt;" style="text;html=1;align=center;verticalAlign=middle;resizable=0;points=[];autosize=1;strokeColor=none;fillColor=none;" parent="1" vertex="1">
          <mxGeometry x="210" y="194" width="210" height="30" as="geometry" />
        </mxCell>
        <mxCell id="2SM_bckRGzznBgXp0BpI-55" value="Confirmation mssg" style="endArrow=open;endSize=12;dashed=1;html=1;rounded=0;" parent="1" edge="1" target="7kUErJdz_R8xbkNcOsrH-16" source="2SM_bckRGzznBgXp0BpI-18">
          <mxGeometry x="-0.0257" y="-12" width="160" relative="1" as="geometry">
            <mxPoint x="391.33" y="470" as="sourcePoint" />
            <mxPoint x="209.99666666666675" y="470" as="targetPoint" />
            <mxPoint as="offset" />
          </mxGeometry>
        </mxCell>
        <mxCell id="2SM_bckRGzznBgXp0BpI-59" value="" style="html=1;verticalAlign=bottom;endArrow=block;edgeStyle=elbowEdgeStyle;elbow=vertical;curved=0;rounded=0;" parent="1" source="2SM_bckRGzznBgXp0BpI-7" edge="1" target="aM9ryv3xv72pqoxQDRHE-2">
          <mxGeometry x="0.1111" y="5" relative="1" as="geometry">
            <mxPoint x="959" y="290" as="sourcePoint" />
            <Array as="points">
              <mxPoint x="1062" y="290" />
              <mxPoint x="1022" y="280" />
            </Array>
            <mxPoint x="1073" y="290" as="targetPoint" />
            <mxPoint as="offset" />
          </mxGeometry>
        </mxCell>
        <mxCell id="2SM_bckRGzznBgXp0BpI-61" value="Confirmation mssg" style="html=1;verticalAlign=bottom;endArrow=open;dashed=1;endSize=8;edgeStyle=elbowEdgeStyle;elbow=horizontal;curved=0;rounded=0;" parent="1" edge="1" source="2SM_bckRGzznBgXp0BpI-7">
          <mxGeometry x="0.6015" y="-14" relative="1" as="geometry">
            <mxPoint x="672" y="454" as="targetPoint" />
            <Array as="points">
              <mxPoint x="900" y="450" />
            </Array>
            <mxPoint x="782" y="460" as="sourcePoint" />
            <mxPoint as="offset" />
          </mxGeometry>
        </mxCell>
        <mxCell id="7kUErJdz_R8xbkNcOsrH-1" value="getInt()" style="text;html=1;align=center;verticalAlign=middle;resizable=0;points=[];autosize=1;strokeColor=none;fillColor=none;" vertex="1" parent="1">
          <mxGeometry x="20" y="194" width="60" height="30" as="geometry" />
        </mxCell>
        <mxCell id="7kUErJdz_R8xbkNcOsrH-2" value="&lt;font style=&quot;font-size: 10px;&quot;&gt;addSongToPlaylist(Login login, Song song)&lt;/font&gt;" style="text;html=1;align=center;verticalAlign=middle;resizable=0;points=[];autosize=1;strokeColor=none;fillColor=none;" vertex="1" parent="1">
          <mxGeometry x="450" y="221" width="210" height="30" as="geometry" />
        </mxCell>
        <mxCell id="7kUErJdz_R8xbkNcOsrH-3" value="&lt;span style=&quot;color: rgb(0, 0, 0); font-family: Helvetica; font-size: 11px; font-style: normal; font-variant-ligatures: normal; font-variant-caps: normal; font-weight: 400; letter-spacing: normal; orphans: 2; text-align: center; text-indent: 0px; text-transform: none; widows: 2; word-spacing: 0px; -webkit-text-stroke-width: 0px; white-space: nowrap; background-color: rgb(255, 255, 255); text-decoration-thickness: initial; text-decoration-style: initial; text-decoration-color: initial; display: inline !important; float: none;&quot;&gt;addSongToPlaylist(Login login, Song song)&lt;/span&gt;" style="text;whiteSpace=wrap;html=1;" vertex="1" parent="1">
          <mxGeometry x="925" y="250" width="240" height="40" as="geometry" />
        </mxCell>
        <mxCell id="7kUErJdz_R8xbkNcOsrH-4" value=":DB" style="shape=umlLifeline;perimeter=lifelinePerimeter;whiteSpace=wrap;html=1;container=0;dropTarget=0;collapsible=0;recursiveResize=0;outlineConnect=0;portConstraint=eastwest;newEdgeStyle={&quot;edgeStyle&quot;:&quot;elbowEdgeStyle&quot;,&quot;elbow&quot;:&quot;vertical&quot;,&quot;curved&quot;:0,&quot;rounded&quot;:0};" vertex="1" parent="1">
          <mxGeometry x="1500" y="115.5" width="100" height="529" as="geometry" />
        </mxCell>
        <mxCell id="7kUErJdz_R8xbkNcOsrH-5" value="Confirmation mssg" style="html=1;verticalAlign=bottom;endArrow=open;dashed=1;endSize=8;edgeStyle=elbowEdgeStyle;elbow=horizontal;curved=0;rounded=0;" edge="1" parent="7kUErJdz_R8xbkNcOsrH-4">
          <mxGeometry x="-0.006" relative="1" as="geometry">
            <mxPoint x="-65" y="304.08" as="targetPoint" />
            <Array as="points" />
            <mxPoint x="45" y="304.08" as="sourcePoint" />
            <mxPoint as="offset" />
          </mxGeometry>
        </mxCell>
        <mxCell id="7kUErJdz_R8xbkNcOsrH-6" value="" style="html=1;points=[];perimeter=orthogonalPerimeter;outlineConnect=0;targetShapes=umlLifeline;portConstraint=eastwest;newEdgeStyle={&quot;edgeStyle&quot;:&quot;elbowEdgeStyle&quot;,&quot;elbow&quot;:&quot;vertical&quot;,&quot;curved&quot;:0,&quot;rounded&quot;:0};" vertex="1" parent="7kUErJdz_R8xbkNcOsrH-4">
          <mxGeometry x="45" y="269.08" width="10" height="40" as="geometry" />
        </mxCell>
        <mxCell id="7kUErJdz_R8xbkNcOsrH-7" value="Query" style="html=1;verticalAlign=bottom;endArrow=block;edgeStyle=elbowEdgeStyle;elbow=vertical;curved=0;rounded=0;" edge="1" parent="7kUErJdz_R8xbkNcOsrH-4">
          <mxGeometry relative="1" as="geometry">
            <mxPoint x="-60" y="283.08" as="sourcePoint" />
            <Array as="points">
              <mxPoint x="5" y="282.66" />
              <mxPoint x="-35" y="272.66" />
            </Array>
            <mxPoint x="40" y="283.08" as="targetPoint" />
            <mxPoint as="offset" />
          </mxGeometry>
        </mxCell>
        <mxCell id="7kUErJdz_R8xbkNcOsrH-8" value="&lt;span style=&quot;color: rgb(0, 0, 0); font-family: Helvetica; font-size: 11px; font-style: normal; font-variant-ligatures: normal; font-variant-caps: normal; font-weight: 400; letter-spacing: normal; orphans: 2; text-align: center; text-indent: 0px; text-transform: none; widows: 2; word-spacing: 0px; -webkit-text-stroke-width: 0px; white-space: nowrap; background-color: rgb(255, 255, 255); text-decoration-thickness: initial; text-decoration-style: initial; text-decoration-color: initial; display: inline !important; float: none;&quot;&gt;addSongToPlaylist(Login login, Song song)&lt;/span&gt;" style="text;whiteSpace=wrap;html=1;" vertex="1" parent="1">
          <mxGeometry x="1180" y="344.5" width="240" height="40" as="geometry" />
        </mxCell>
        <mxCell id="7kUErJdz_R8xbkNcOsrH-12" value=":Display" style="shape=umlLifeline;perimeter=lifelinePerimeter;whiteSpace=wrap;html=1;container=0;dropTarget=0;collapsible=0;recursiveResize=0;outlineConnect=0;portConstraint=eastwest;newEdgeStyle={&quot;edgeStyle&quot;:&quot;elbowEdgeStyle&quot;,&quot;elbow&quot;:&quot;vertical&quot;,&quot;curved&quot;:0,&quot;rounded&quot;:0};" vertex="1" parent="1">
          <mxGeometry x="30" y="105" width="90" height="519" as="geometry" />
        </mxCell>
        <mxCell id="7kUErJdz_R8xbkNcOsrH-16" value="" style="html=1;points=[];perimeter=orthogonalPerimeter;outlineConnect=0;targetShapes=umlLifeline;portConstraint=eastwest;newEdgeStyle={&quot;edgeStyle&quot;:&quot;elbowEdgeStyle&quot;,&quot;elbow&quot;:&quot;vertical&quot;,&quot;curved&quot;:0,&quot;rounded&quot;:0};" vertex="1" parent="7kUErJdz_R8xbkNcOsrH-12">
          <mxGeometry x="40" y="366" width="10" height="22.5" as="geometry" />
        </mxCell>
        <mxCell id="7kUErJdz_R8xbkNcOsrH-20" value="display Confirmation mssg" style="endArrow=open;endSize=12;dashed=1;html=1;rounded=0;" edge="1" parent="1">
          <mxGeometry x="0.0933" y="-13" width="160" relative="1" as="geometry">
            <mxPoint x="84.5" y="492.5" as="sourcePoint" />
            <mxPoint x="-70" y="493" as="targetPoint" />
            <mxPoint as="offset" />
          </mxGeometry>
        </mxCell>
      </root>
    </mxGraphModel>
  </diagram>
</mxfile>
